<?xml version="1.0" standalone="no"?>
<!DOCTYPE svg PUBLIC "-//W3C//DTD SVG 20010904//EN"
 "http://www.w3.org/TR/2001/REC-SVG-20010904/DTD/svg10.dtd">
<svg version="1.0" xmlns="http://www.w3.org/2000/svg"
 width="200.000000pt" height="80.000000pt" viewBox="0 0 10.000000 420.000000"
 preserveAspectRatio="xMidYMid meet">

<g transform="translate(0.000000,420.000000) scale(0.100000,-0.100000)"
fill="#000000" stroke="none">
<path d="M3040 3236 c0 -59 -3 -68 -38 -113 -58 -73 -137 -139 -205 -173 -58
-28 -175 -59 -224 -60 -17 0 -23 -6 -23 -21 0 -20 4 -21 60 -16 l60 5 0 -124
0 -124 -60 0 -60 0 0 -40 0 -40 245 0 245 0 0 -100 0 -100 45 0 45 0 0 100 0
100 490 0 490 0 0 -100 0 -100 40 0 40 0 0 100 0 100 250 0 250 0 0 40 0 40
-50 0 -50 0 0 124 0 123 50 -5 c46 -4 50 -3 50 17 0 15 -6 21 -22 21 -106 1
-275 71 -362 151 -86 78 -116 131 -116 201 l0 58 -40 0 -40 0 0 -60 c0 -69
-15 -98 -87 -173 -211 -219 -554 -233 -772 -31 -91 84 -121 135 -121 206 l0
58 -45 0 -45 0 0 -64z m180 -430 l0 -196 -45 0 -45 0 0 245 0 244 45 -48 45
-48 0 -197z m1080 -5 l0 -191 -55 0 -55 0 0 245 0 245 55 -54 55 -53 0 -192z
m-1260 49 l0 -240 -40 0 -40 0 0 196 0 196 38 43 c20 25 38 44 40 45 1 0 2
-108 2 -240z m1070 0 l0 -240 -40 0 -40 0 0 196 0 197 36 43 c19 24 37 44 40
44 2 0 4 -108 4 -240z m-1170 -55 l0 -185 -60 0 -60 0 0 148 0 148 53 36 c28
20 55 36 60 37 4 0 7 -82 7 -184z m388 133 c21 -11 22 -15 22 -165 l0 -153
-55 0 -55 0 0 186 0 186 33 -22 c17 -11 42 -26 55 -32z m682 -133 l0 -185 -55
0 -55 0 0 154 0 153 48 31 c26 17 50 31 55 31 4 1 7 -82 7 -184z m430 -37 l0
-148 -60 0 -60 0 0 180 0 179 60 -32 60 -32 0 -147z m-1640 -3 l0 -145 -55 0
-55 0 0 128 0 127 53 16 c28 9 53 17 55 18 1 0 2 -64 2 -144z m643 122 l37
-12 0 -127 0 -128 -55 0 -55 0 0 146 c0 135 1 146 18 139 9 -3 34 -12 55 -18z
m437 -122 l0 -145 -55 0 -55 0 0 128 0 128 43 16 c71 26 67 33 67 -127z m649
115 l41 -11 0 -124 0 -125 -55 0 -55 0 0 141 c0 119 2 140 14 136 8 -3 33 -11
55 -17z m-943 -20 c24 0 24 0 24 -120 l0 -120 -55 0 -55 0 0 126 0 127 31 -7
c17 -3 42 -6 55 -6z m154 -115 l0 -125 -55 0 -55 0 0 119 0 120 38 4 c20 2 45
4 55 5 15 2 17 -10 17 -123z"/>
<path d="M2455 1968 c-70 -201 -329 -876 -356 -930 l-19 -38 104 0 104 0 6 28
c4 15 23 73 43 130 l36 102 192 0 193 0 31 -85 c17 -47 36 -106 42 -130 l11
-45 104 0 103 0 -23 53 c-21 46 -335 864 -350 910 -5 15 -19 17 -111 17 -76 0
-107 -4 -110 -12z m190 -374 c36 -100 65 -184 65 -188 0 -3 -66 -6 -146 -6
-113 0 -145 3 -142 13 3 6 36 99 73 206 51 144 71 189 77 175 4 -10 37 -101
73 -200z"/>
<path d="M4435 1491 l0 -490 65 -3 c116 -6 106 -26 101 201 -3 215 -2 221 57
299 57 75 169 106 224 62 45 -35 49 -59 46 -317 l-3 -242 84 -3 c45 -2 86 -1
90 2 3 3 4 127 1 275 -4 231 -8 276 -23 310 -41 91 -113 130 -237 129 -89 0
-146 -22 -204 -79 l-38 -38 3 191 4 192 -85 0 -85 0 0 -489z"/>
<path d="M3944 1720 c-70 -10 -134 -41 -179 -85 -120 -120 -141 -365 -45 -515
115 -179 418 -200 555 -38 26 31 71 117 63 122 -1 2 -37 10 -79 18 l-76 15
-12 -34 c-30 -83 -151 -118 -241 -71 -35 19 -51 37 -74 82 -26 50 -30 68 -30
139 1 148 61 228 178 235 52 3 66 0 96 -20 19 -13 45 -42 57 -64 l23 -41 69
16 c39 9 73 19 76 23 12 12 -44 104 -87 145 -68 62 -182 90 -294 73z"/>
<path d="M3445 1711 c-52 -9 -82 -25 -127 -69 l-38 -36 0 47 0 47 -82 0 -83 0
0 -350 0 -350 86 0 86 0 -5 188 c-5 211 2 253 50 308 50 57 80 68 174 61 l81
-6 20 72 c11 40 18 75 14 79 -10 11 -132 17 -176 9z"/>
</g>
</svg>
